# xmcd CD database file
#
# Track frame offsets:
#	150
#	15948
#	34220
#	55273
#	65162
#	78657
#	100839
#	110961
#	138077
#	157157
#	168223
#
# Disc length: 2418 seconds
#
# Revision: 0
# Processed by: cddbd v1.5.1PL0 Copyright (c) Steve Scherf et al.
# Submitted via: CDex 1.60beta1
#
DISCID=9209700b
DTITLE=The Faux Freshmen - Seasons Of The Heart
DYEAR=0
DGENRE=Jazz
TTITLE0=It's All Right With Me
TTITLE1=Blame It On My Youth
TTITLE2=Give Me Time
TTITLE3=Don't Make Me Sorry
TTITLE4=How High The Moon
TTITLE5=Summer Has Gone
TTITLE6=Give Me The Simple Life
TTITLE7=Seasons Of The Heart
TTITLE8=I'm Glad There Is You
TTITLE9=Sugar Walks Down The Street
TTITLE10=The Earth Begins To Sing
EXTD=YEAR: 0
EXTT0=
EXTT1=
EXTT2=
EXTT3=
EXTT4=
EXTT5=
EXTT6=
EXTT7=
EXTT8=
EXTT9=
EXTT10=
PLAYORDER=
